# xmcd CD database file
#
# Track frame offsets:
#	150
#	17079
#	34864
#	51793
#
# Disc length: 924 seconds
#
# Revision: 0
# Processed by: cddbd v1.5.1PL0 Copyright (c) Steve Scherf et al.
# Submitted via: CDex 1.51
#
DISCID=2a039a04
DTITLE=yozuca* - サクライロノキセツ
DYEAR=2005
DGENRE=Anime
TTITLE0=サクライロノキセツ
TTITLE1=チェーリング
TTITLE2=サクライロノキセツ (OFF VOCAL)
TTITLE3=チェーリング (OFF VOCAL)
EXTD=YEAR: 2005
EXTT0=
EXTT1=
EXTT2=
EXTT3=
PLAYORDER=
